<svg width="1782" height="1784" viewBox="0 0 1782 1784" fill="none" xmlns="http://www.w3.org/2000/svg">
<g style="mix-blend-mode:difference">
<path d="M1 1L1781 895H894.953M1 1L894.953 895M1 1L592.263 895M1 1L439.788 895M1 1L349.997 895M1 1L296.914 895M1 1L247.218 895M1 1H247.218M894.953 895V1M894.953 895H592.263M894.953 895V1713.5M894.953 1H1781L1 895H247.218M894.953 1H592.263M592.263 895V1M592.263 895H439.788M592.263 895V1783.5M592.263 1H439.788M439.788 895V1M439.788 895H349.997M439.788 895V1783.5M439.788 1H349.997M349.997 895V1M349.997 895H296.914M349.997 895V1783.5M349.997 1H296.914H247.218M296.914 895H247.218M296.914 895V1783.5M247.218 895V1M247.218 895V1783.5" stroke="#F1F1F1" stroke-opacity="0.75"/>
</g>
</svg>
